<svg xmlns="http://www.w3.org/2000/svg" width="14" height="15" viewBox="0 0 14 15">
  <path fill="#1BB953" fill-rule="evenodd" d="M13.8245991,7.31855103 C14.0783823,7.00965465 14.0538756,6.53620882 13.7698812,6.26135367 L7.51310532,0.202418807 C7.22911092,-0.0724363454 6.77379802,-0.06667863 6.49578197,0.21539892 L0.217739566,6.58439181 C-0.0602764865,6.86646936 -0.0739217261,7.33930911 0.187528367,7.64007398 L0.344927803,7.82149253 C0.606058442,8.1222574 1.02814814,8.15811685 1.28708824,7.90134295 L1.75627456,7.43633167 L1.75627456,14.2441736 C1.75627456,14.6618605 2.06208309,15 2.43922108,15 L4.88641951,15 C5.2635575,15 5.56936603,14.6618605 5.56936603,14.2441736 L5.56936603,9.48143178 L8.69079446,9.48143178 L8.69079446,14.2441736 C8.68536374,14.6615574 8.95521091,14.999697 9.3323489,14.999697 L11.9257659,14.999697 C12.3029039,14.999697 12.6087124,14.6615574 12.6087124,14.2438705 L12.6087124,7.53219258 C12.6087124,7.53219258 12.7383194,7.65785219 12.8981832,7.81336101 C13.0577731,7.9685668 13.3929714,7.84411934 13.6467546,7.53491992 L13.8245991,7.31855103 Z"/>
</svg>
